<svg data-name="Layer 1" xmlns="http://www.w3.org/2000/svg" viewBox="0 0 128 128"><path d="M120.25 25.627h-34.2l-7.091-8.163a9.745 9.745 0 0 0-7.359-3.357h-3.082L80.679 3.024A1.75 1.75 0 0 0 78.321.437L64 13.49 49.679.437a1.75 1.75 0 0 0-2.357 2.587l12.16 11.083H56.4a9.744 9.744 0 0 0-7.361 3.356l-7.091 8.163H7.75A7.759 7.759 0 0 0 0 33.377v73.461a7.759 7.759 0 0 0 7.75 7.75H10v11.642a1.75 1.75 0 0 0 1.75 1.75h6.412a1.75 1.75 0 0 0 1.5-.852l7.5-12.54h73.678l7.5 12.54a1.749 1.749 0 0 0 1.5.852h6.412a1.75 1.75 0 0 0 1.75-1.75v-11.642h2.25a7.759 7.759 0 0 0 7.75-7.75V33.377a7.759 7.759 0 0 0-7.752-7.75zm-68.564-5.868a6.247 6.247 0 0 1 4.714-2.152h15.2a6.247 6.247 0 0 1 4.719 2.151l5.1 5.868H46.588zM17.169 124.48H13.5v-9.892h9.582zm97.331 0h-3.669l-5.913-9.892h9.582zm10-17.642a4.255 4.255 0 0 1-4.25 4.25H7.75a4.255 4.255 0 0 1-4.25-4.25V33.377a4.255 4.255 0 0 1 4.25-4.25h112.5a4.255 4.255 0 0 1 4.25 4.25z"/><path d="M91.667 35.627H11.75a1.75 1.75 0 0 0-1.75 1.75v65.461a1.75 1.75 0 0 0 1.75 1.75h79.917a1.75 1.75 0 0 0 1.75-1.75V37.377a1.75 1.75 0 0 0-1.75-1.75zm-1.75 65.461H13.5V39.127h76.417zM109.5 62.544a9.528 9.528 0 0 0-6.7 2.747c-.021.019-.046.034-.066.054s-.035.045-.055.067A9.554 9.554 0 0 0 116.2 78.918c.02-.018.042-.031.061-.05s.032-.042.051-.062a9.554 9.554 0 0 0-6.812-16.262zm6.062 9.563a6.023 6.023 0 0 1-.722 2.865l-8.206-8.206a6.059 6.059 0 0 1 8.928 5.34zm-12.125 0a6.024 6.024 0 0 1 .722-2.866l8.206 8.206a6.059 6.059 0 0 1-8.928-5.34zM117.312 35.627h-15.625a1.75 1.75 0 0 0 0 3.5h15.625a1.75 1.75 0 0 0 0-3.5zM117.312 42.691h-15.625a1.75 1.75 0 0 0 0 3.5h15.625a1.75 1.75 0 0 0 0-3.5zM117.312 49.755h-15.625a1.75 1.75 0 0 0 0 3.5h15.625a1.75 1.75 0 0 0 0-3.5zM116.262 88.264c-.021-.021-.045-.035-.066-.054a9.554 9.554 0 0 0-13.512 13.511c.02.022.034.046.055.067s.045.035.067.054a9.554 9.554 0 0 0 13.512-13.511c-.018-.022-.035-.047-.056-.067zm-6.762.7a6.024 6.024 0 0 1 2.866.722l-8.206 8.206a6.059 6.059 0 0 1 5.34-8.928zm0 12.125a6.024 6.024 0 0 1-2.866-.722l8.206-8.206a6.059 6.059 0 0 1-5.34 8.928z"/></svg>